HIERARCHY
ROOT mixamorig:Hips
{
	OFFSET -0.000008 104.274872 1.554316
	CHANNELS 6 Xposition Yposition Zposition Xrotation Yrotation Zrotation
	JOINT mixamorig:Spine
	{
		OFFSET -0.000005 10.181595 0.131519
		CHANNELS 6 Xposition Yposition Zposition Xrotation Yrotation Zrotation
		JOINT mixamorig:Spine1
		{
			OFFSET -0.000000 9.893959 -1.470707
			CHANNELS 6 Xposition Yposition Zposition Xrotation Yrotation Zrotation
			JOINT mixamorig:Spine2
			{
				OFFSET -0.000000 9.220757 -1.370641
				CHANNELS 6 Xposition Yposition Zposition Xrotation Yrotation Zrotation
				JOINT mixamorig:Neck
				{
					OFFSET 0.000001 16.740417 -2.049036
					CHANNELS 6 Xposition Yposition Zposition Xrotation Yrotation Zrotation
					JOINT mixamorig:Head
					{
						OFFSET 0.000000 9.617874 1.685006
						CHANNELS 6 Xposition Yposition Zposition Xrotation Yrotation Zrotation
						JOINT mixamorig:HeadTop_End
						{
							OFFSET 0.000002 22.037354 7.501101
							CHANNELS 6 Xposition Yposition Zposition Xrotation Yrotation Zrotation
							End Site
							{
								OFFSET 0.000168 2310.654297 -282.823242
							}
						}
					}
				}
				JOINT mixamorig:RightShoulder
				{
					OFFSET -4.569970 11.014908 -2.160885
					CHANNELS 6 Xposition Yposition Zposition Xrotation Yrotation Zrotation
					JOINT mixamorig:RightArm
					{
						OFFSET -10.592851 -0.524811 -2.232101
						CHANNELS 6 Xposition Yposition Zposition Xrotation Yrotation Zrotation
						JOINT mixamorig:RightForeArm
						{
							OFFSET -27.841511 0.000031 -0.000004
							CHANNELS 6 Xposition Yposition Zposition Xrotation Yrotation Zrotation
							JOINT mixamorig:RightHand
							{
								OFFSET -28.328831 -0.000015 0.000015
								CHANNELS 6 Xposition Yposition Zposition Xrotation Yrotation Zrotation
								JOINT mixamorig:RightHandThumb1
								{
									OFFSET -2.464806 -1.573990 2.681852
									CHANNELS 6 Xposition Yposition Zposition Xrotation Yrotation Zrotation
									JOINT mixamorig:RightHandThumb2
									{
										OFFSET -3.215179 -1.872803 1.924282
										CHANNELS 6 Xposition Yposition Zposition Xrotation Yrotation Zrotation
										JOINT mixamorig:RightHandThumb3
										{
											OFFSET -2.654831 -1.527969 1.512609
											CHANNELS 6 Xposition Yposition Zposition Xrotation Yrotation Zrotation
											JOINT mixamorig:RightHandThumb4
											{
												OFFSET -2.018814 -1.152008 1.108052
												CHANNELS 6 Xposition Yposition Zposition Xrotation Yrotation Zrotation
												End Site
												{
													OFFSET -188.809540 -114.533607 132.431396
												}
											}
										}
									}
								}
								JOINT mixamorig:RightHandIndex1
								{
									OFFSET -9.108284 -0.517868 2.259835
									CHANNELS 6 Xposition Yposition Zposition Xrotation Yrotation Zrotation
									JOINT mixamorig:RightHandIndex2
									{
										OFFSET -3.699989 0.000000 0.001215
										CHANNELS 6 Xposition Yposition Zposition Xrotation Yrotation Zrotation
										JOINT mixamorig:RightHandIndex3
										{
											OFFSET -2.850006 0.000031 -0.000522
											CHANNELS 6 Xposition Yposition Zposition Xrotation Yrotation Zrotation
											JOINT mixamorig:RightHandIndex4
											{
												OFFSET -2.772186 -0.000015 -0.000020
												CHANNELS 6 Xposition Yposition Zposition Xrotation Yrotation Zrotation
												End Site
												{
													OFFSET -277.218445 0.000000 -0.050231
												}
											}
										}
									}
								}
								JOINT mixamorig:RightHandMiddle1
								{
									OFFSET -9.532516 -0.000031 -0.000023
									CHANNELS 6 Xposition Yposition Zposition Xrotation Yrotation Zrotation
									JOINT mixamorig:RightHandMiddle2
									{
										OFFSET -3.700005 -0.000015 0.003713
										CHANNELS 6 Xposition Yposition Zposition Xrotation Yrotation Zrotation
										JOINT mixamorig:RightHandMiddle3
										{
											OFFSET -2.949974 0.000015 -0.002054
											CHANNELS 6 Xposition Yposition Zposition Xrotation Yrotation Zrotation
											JOINT mixamorig:RightHandMiddle4
											{
												OFFSET -2.946640 0.000000 -0.000156
												CHANNELS 6 Xposition Yposition Zposition Xrotation Yrotation Zrotation
												End Site
												{
													OFFSET -294.664337 0.000000 -0.113670
												}
											}
										}
									}
								}
								JOINT mixamorig:RightHandRing1
								{
									OFFSET -9.103600 -0.043076 -1.865134
									CHANNELS 6 Xposition Yposition Zposition Xrotation Yrotation Zrotation
									JOINT mixamorig:RightHandRing2
									{
										OFFSET -3.379288 0.000000 -0.001055
										CHANNELS 6 Xposition Yposition Zposition Xrotation Yrotation Zrotation
										JOINT mixamorig:RightHandRing3
										{
											OFFSET -2.889687 -0.000015 0.000379
											CHANNELS 6 Xposition Yposition Zposition Xrotation Yrotation Zrotation
											JOINT mixamorig:RightHandRing4
											{
												OFFSET -2.638809 -0.000015 0.000941
												CHANNELS 6 Xposition Yposition Zposition Xrotation Yrotation Zrotation
												End Site
												{
													OFFSET -263.880371 0.000000 0.516020
												}
											}
										}
									}
								}
								JOINT mixamorig:RightHandPinky1
								{
									OFFSET -8.076683 -0.486710 -3.806280
									CHANNELS 6 Xposition Yposition Zposition Xrotation Yrotation Zrotation
									JOINT mixamorig:RightHandPinky2
									{
										OFFSET -3.600014 -0.000015 -0.003747
										CHANNELS 6 Xposition Yposition Zposition Xrotation Yrotation Zrotation
										JOINT mixamorig:RightHandPinky3
										{
											OFFSET -2.099983 0.000000 -0.005739
											CHANNELS 6 Xposition Yposition Zposition Xrotation Yrotation Zrotation
											JOINT mixamorig:RightHandPinky4
											{
												OFFSET -2.115768 -0.000031 -0.003680
												CHANNELS 6 Xposition Yposition Zposition Xrotation Yrotation Zrotation
												End Site
												{
													OFFSET -211.577087 0.000000 -0.350686
												}
											}
										}
									}
								}
							}
						}
					}
				}
				JOINT mixamorig:LeftShoulder
				{
					OFFSET 4.570447 11.014725 -2.160855
					CHANNELS 6 Xposition Yposition Zposition Xrotation Yrotation Zrotation
					JOINT mixamorig:LeftArm
					{
						OFFSET 10.592371 -0.524597 -2.232119
						CHANNELS 6 Xposition Yposition Zposition Xrotation Yrotation Zrotation
						JOINT mixamorig:LeftForeArm
						{
							OFFSET 27.841532 -0.000031 0.000026
							CHANNELS 6 Xposition Yposition Zposition Xrotation Yrotation Zrotation
							JOINT mixamorig:LeftHand
							{
								OFFSET 28.328846 -0.000061 0.000022
								CHANNELS 6 Xposition Yposition Zposition Xrotation Yrotation Zrotation
								JOINT mixamorig:LeftHandThumb1
								{
									OFFSET 2.466141 -1.576172 2.681732
									CHANNELS 6 Xposition Yposition Zposition Xrotation Yrotation Zrotation
									JOINT mixamorig:LeftHandThumb2
									{
										OFFSET 3.217812 -1.872070 1.916482
										CHANNELS 6 Xposition Yposition Zposition Xrotation Yrotation Zrotation
										JOINT mixamorig:LeftHandThumb3
										{
											OFFSET 2.656029 -1.528778 1.514513
											CHANNELS 6 Xposition Yposition Zposition Xrotation Yrotation Zrotation
											JOINT mixamorig:LeftHandThumb4
											{
												OFFSET 2.020889 -1.154053 1.115139
												CHANNELS 6 Xposition Yposition Zposition Xrotation Yrotation Zrotation
												End Site
												{
													OFFSET 190.885437 -115.081749 130.048782
												}
											}
										}
									}
								}
								JOINT mixamorig:LeftHandIndex1
								{
									OFFSET 9.109314 -0.518021 2.259871
									CHANNELS 6 Xposition Yposition Zposition Xrotation Yrotation Zrotation
									JOINT mixamorig:LeftHandIndex2
									{
										OFFSET 3.699989 0.000000 -0.000322
										CHANNELS 6 Xposition Yposition Zposition Xrotation Yrotation Zrotation
										JOINT mixamorig:LeftHandIndex3
										{
											OFFSET 2.850006 0.000000 0.000352
											CHANNELS 6 Xposition Yposition Zposition Xrotation Yrotation Zrotation
											JOINT mixamorig:LeftHandIndex4
											{
												OFFSET 2.774864 -0.000031 -0.000027
												CHANNELS 6 Xposition Yposition Zposition Xrotation Yrotation Zrotation
												End Site
												{
													OFFSET 277.486267 0.000000 -0.009857
												}
											}
										}
									}
								}
								JOINT mixamorig:LeftHandMiddle1
								{
									OFFSET 9.533394 0.000061 0.000044
									CHANNELS 6 Xposition Yposition Zposition Xrotation Yrotation Zrotation
									JOINT mixamorig:LeftHandMiddle2
									{
										OFFSET 3.699989 -0.000015 -0.000231
										CHANNELS 6 Xposition Yposition Zposition Xrotation Yrotation Zrotation
										JOINT mixamorig:LeftHandMiddle3
										{
											OFFSET 2.949997 -0.000015 -0.000059
											CHANNELS 6 Xposition Yposition Zposition Xrotation Yrotation Zrotation
											JOINT mixamorig:LeftHandMiddle4
											{
												OFFSET 2.952896 0.000031 0.000063
												CHANNELS 6 Xposition Yposition Zposition Xrotation Yrotation Zrotation
												End Site
												{
													OFFSET 295.289337 0.000000 0.022810
												}
											}
										}
									}
								}
								JOINT mixamorig:LeftHandRing1
								{
									OFFSET 9.104523 -0.042999 -1.865074
									CHANNELS 6 Xposition Yposition Zposition Xrotation Yrotation Zrotation
									JOINT mixamorig:LeftHandRing2
									{
										OFFSET 3.150009 -0.000031 0.000043
										CHANNELS 6 Xposition Yposition Zposition Xrotation Yrotation Zrotation
										JOINT mixamorig:LeftHandRing3
										{
											OFFSET 2.949982 -0.000015 0.000040
											CHANNELS 6 Xposition Yposition Zposition Xrotation Yrotation Zrotation
											JOINT mixamorig:LeftHandRing4
											{
												OFFSET 2.644348 0.000000 0.000057
												CHANNELS 6 Xposition Yposition Zposition Xrotation Yrotation Zrotation
												End Site
												{
													OFFSET 264.434631 0.000000 0.012105
												}
											}
										}
									}
								}
								JOINT mixamorig:LeftHandPinky1
								{
									OFFSET 8.077789 -0.486847 -3.806259
									CHANNELS 6 Xposition Yposition Zposition Xrotation Yrotation Zrotation
									JOINT mixamorig:LeftHandPinky2
									{
										OFFSET 3.599953 0.000031 0.014727
										CHANNELS 6 Xposition Yposition Zposition Xrotation Yrotation Zrotation
										JOINT mixamorig:LeftHandPinky3
										{
											OFFSET 2.100021 0.000015 0.007705
											CHANNELS 6 Xposition Yposition Zposition Xrotation Yrotation Zrotation
											JOINT mixamorig:LeftHandPinky4
											{
												OFFSET 2.125504 0.000031 0.007517
												CHANNELS 6 Xposition Yposition Zposition Xrotation Yrotation Zrotation
												End Site
												{
													OFFSET 212.550781 0.000000 0.625752
												}
											}
										}
									}
								}
							}
						}
					}
				}
			}
		}
	}
	JOINT mixamorig:RightUpLeg
	{
		OFFSET -8.207787 -6.751648 -1.599560
		CHANNELS 6 Xposition Yposition Zposition Xrotation Yrotation Zrotation
		JOINT mixamorig:RightLeg
		{
			OFFSET -0.000002 -44.370117 0.345942
			CHANNELS 6 Xposition Yposition Zposition Xrotation Yrotation Zrotation
			JOINT mixamorig:RightFoot
			{
				OFFSET 0.000003 -44.423679 -3.043532
				CHANNELS 6 Xposition Yposition Zposition Xrotation Yrotation Zrotation
				JOINT mixamorig:RightToeBase
				{
					OFFSET -0.000002 -8.728671 10.710558
					CHANNELS 6 Xposition Yposition Zposition Xrotation Yrotation Zrotation
					JOINT mixamorig:RightToe_End
					{
						OFFSET -0.000001 -0.000679 9.278119
						CHANNELS 6 Xposition Yposition Zposition Xrotation Yrotation Zrotation
						End Site
						{
							OFFSET 0.000000 -0.067690 927.812134
						}
					}
				}
			}
		}
	}
	JOINT mixamorig:LeftUpLeg
	{
		OFFSET 8.207793 -6.751686 -1.599556
		CHANNELS 6 Xposition Yposition Zposition Xrotation Yrotation Zrotation
		JOINT mixamorig:LeftLeg
		{
			OFFSET -0.000004 -44.370014 0.346954
			CHANNELS 6 Xposition Yposition Zposition Xrotation Yrotation Zrotation
			JOINT mixamorig:LeftFoot
			{
				OFFSET -0.000001 -44.423672 -3.044401
				CHANNELS 6 Xposition Yposition Zposition Xrotation Yrotation Zrotation
				JOINT mixamorig:LeftToeBase
				{
					OFFSET -0.000002 -8.728669 10.710558
					CHANNELS 6 Xposition Yposition Zposition Xrotation Yrotation Zrotation
					JOINT mixamorig:LeftToe_End
					{
						OFFSET -0.000003 -0.000679 9.278133
						CHANNELS 6 Xposition Yposition Zposition Xrotation Yrotation Zrotation
						End Site
						{
							OFFSET 0.000000 -0.068021 927.813477
						}
					}
				}
			}
		}
	}
}
MOTION
Frames: 3
Frame Time: 0.033333
0.000006 104.270477 1.554256 0.000010 0.000003 -0.000113 -0.000005 10.181587 0.131522 0.000001 -0.000003 0.000084 -0.000000 9.893967 -1.470711 0.000001 0.000000 -0.000000 -0.000000 9.220802 -1.370642 0.000000 -0.000000 -0.000000 0.000001 16.740433 -2.049030 0.000000 -0.000000 -0.000000 0.000000 9.617859 1.685014 0.000000 0.000000 0.000000 0.000002 22.037384 7.501101 0.000000 -0.000000 0.000000 -4.569968 11.014880 -2.160881 0.000008 0.000001 -0.000038 -10.592877 -0.524734 -2.231935 76.392094 22.975788 -18.169987 -27.841520 -0.000007 0.000539 -48.270330 110.291962 65.512470 -28.328817 0.000023 0.000034 -0.000322 -0.000046 0.000009 -2.464470 -1.573658 2.682296 -54.341682 -177.185899 -31.745247 -3.215292 -1.872618 1.924651 152.439495 30.495828 -1.895896 -2.654965 -1.527853 1.513060 143.283954 27.849541 -34.155792 -2.018833 -1.151998 1.108040 -0.000002 0.000000 0.000002 -9.108375 -0.517540 2.260124 98.621409 15.073748 -17.549517 -3.700073 0.000320 0.001504 96.386332 12.905246 -14.388929 -2.850073 0.000362 -0.000258 94.980904 11.508415 -12.546012 -2.772163 -0.000016 -0.000020 0.000001 0.000001 -0.000000 -9.532596 0.000280 0.000209 87.522611 16.029284 -15.495607 -3.700066 0.000323 0.003936 87.652521 12.233568 -11.654745 -2.950071 0.000329 -0.001831 89.271030 12.069974 -11.911422 -2.946616 0.000003 -0.000152 -0.000001 0.000000 -0.000000 -9.103704 -0.042772 -1.864887 84.754130 19.265882 -17.563944 -3.379347 0.000315 -0.000837 88.237739 11.533406 -11.203499 -2.889771 0.000344 0.000626 94.099475 9.010513 -9.726600 -2.638804 0.000001 0.000943 0.000001 -0.000001 0.000001 -8.076774 -0.486419 -3.806082 70.030858 21.806055 -15.258031 -3.600069 0.000235 -0.003577 72.054398 13.017099 -9.208998 -2.100027 0.000282 -0.005543 76.744286 8.025456 -6.178018 -2.115777 -0.000055 -0.003680 0.000000 0.000004 -0.000003 4.570446 11.014691 -2.160851 -0.000018 0.000010 -0.000021 10.592497 -0.524551 -2.232368 45.868870 -64.700674 30.006503 27.841728 -0.000075 -0.000084 235.364931 -71.437529 252.227848 28.328833 -0.000027 0.000026 0.000020 -0.000088 -0.000000 2.466033 -1.576181 2.681876 -18.471488 125.510422 -30.354809 3.217759 -1.872052 1.916529 -159.483934 52.070237 102.591019 2.656015 -1.528792 1.514606 -148.803280 40.410480 84.649669 2.020875 -1.154053 1.115157 0.000002 0.000002 0.000003 9.109204 -0.517712 2.260079 220.989650 -14.763773 321.780539 3.699863 0.000297 -0.000132 220.580071 -14.827012 -38.797838 2.849906 0.000339 0.000554 221.523853 -10.104399 -26.251497 2.774877 -0.000032 -0.000025 -0.000000 -0.000001 0.000001 9.533287 0.000381 0.000238 216.302816 -12.005832 -35.554697 3.699892 0.000336 -0.000060 217.655972 -10.337939 -29.712682 2.949913 0.000324 0.000125 213.589072 -9.227294 -29.944089 2.952877 -0.000029 0.000071 0.000000 0.000001 0.000001 9.104642 -0.042977 -1.865036 169.152203 -15.189743 109.104315 3.150071 0.000295 -0.000049 126.186297 -10.528880 20.585340 2.949995 0.000264 -0.000113 102.542777 -1.537455 1.918923 2.644323 0.000047 0.000059 0.000001 -0.000000 -0.000002 8.077938 -0.486737 -3.806226 166.671014 -11.356439 445.120368 3.599959 0.000379 0.014623 129.420064 -2.892669 7.073025 2.099992 0.000322 0.007543 108.886630 1.742872 -1.887151 2.125487 -0.000015 0.007514 0.000002 -0.000000 0.000000 -8.207786 -6.751667 -1.599560 -0.077001 -0.000003 0.000080 -0.000002 -44.370110 0.345938 0.153719 -0.000000 -0.000000 0.000000 -44.423679 -3.043532 -0.076700 0.000000 -0.000002 -0.000006 -8.728667 10.710559 -0.000009 -0.000000 -0.000000 -0.000001 -0.000679 9.278123 0.000000 -0.000000 -0.000000 8.207792 -6.751710 -1.599556 -0.074518 -0.000003 0.000081 -0.000002 -44.370014 0.346960 0.148822 0.000002 0.000000 -0.000001 -44.423664 -3.044403 -0.074314 0.000000 -0.000002 -0.000004 -8.728671 10.710558 0.000007 -0.000000 -0.000000 0.000000 -0.000680 9.278137 -0.000000 0.000000 -0.000001 
0.000006 104.270477 1.554256 0.000010 0.000003 -0.000113 -0.000005 10.181587 0.131522 0.000001 -0.000003 0.000084 -0.000000 9.893967 -1.470711 0.000001 0.000000 -0.000000 -0.000000 9.220802 -1.370642 0.000000 -0.000000 -0.000000 0.000001 16.740433 -2.049030 0.000000 -0.000000 -0.000000 0.000000 9.617859 1.685014 0.000000 0.000000 0.000000 0.000002 22.037384 7.501101 0.000000 -0.000000 0.000000 -4.569968 11.014880 -2.160881 0.000008 0.000001 -0.000038 -10.592880 -0.524743 -2.231921 76.522885 25.629689 -20.340710 -27.841507 -0.000009 0.000561 -48.204699 109.990518 65.140750 -28.328817 0.000021 0.000024 -0.000323 -0.000045 0.000009 -2.464454 -1.573671 2.682275 -54.119263 -176.928824 -30.833383 -3.215283 -1.872595 1.924659 152.601439 30.692490 -0.650742 -2.654972 -1.527888 1.513069 143.723163 27.762503 -34.324402 -2.018830 -1.152018 1.108060 -0.000004 -0.000003 0.000000 -9.108366 -0.517541 2.260120 98.563188 15.193735 -17.670405 -3.700063 0.000309 0.001506 96.217599 13.338832 -14.828534 -2.850083 0.000364 -0.000261 94.419005 11.839949 -12.781651 -2.772160 0.000002 -0.000020 0.000000 0.000001 0.000002 -9.532579 0.000271 0.000210 87.075807 16.212648 -15.551366 -3.700065 0.000345 0.003950 87.588748 12.756793 -12.143457 -2.950067 0.000338 -0.001836 89.419013 12.327350 -12.196834 -2.946629 -0.000000 -0.000154 -0.000004 0.000002 0.000002 -9.103703 -0.042768 -1.864873 84.327892 19.406686 -17.563295 -3.379329 0.000302 -0.000835 87.852857 11.639108 -11.230807 -2.889767 0.000337 0.000646 94.100500 8.971599 -9.684979 -2.638823 -0.000016 0.000942 -0.000000 0.000001 -0.000001 -8.076758 -0.486420 -3.806079 69.551441 21.789722 -15.112531 -3.600062 0.000240 -0.003595 71.808415 12.741985 -8.968179 -2.100016 0.000298 -0.005547 76.426088 7.658929 -5.854728 -2.115772 -0.000041 -0.003683 -0.000000 -0.000003 -0.000005 4.570446 11.014691 -2.160851 -0.000018 0.000010 -0.000021 10.592497 -0.524563 -2.232364 45.754785 -65.261494 30.237241 27.841728 -0.000074 -0.000079 237.323556 -71.425665 254.494378 28.328831 -0.000012 0.000029 0.000023 -0.000089 0.000000 2.466086 -1.576195 2.681891 0.568377 124.851446 -54.560750 3.217789 -1.872004 1.916542 -129.685157 44.958716 69.180691 2.656080 -1.528726 1.514622 -123.864634 27.360546 54.844978 2.020883 -1.154069 1.115143 0.000004 0.000003 0.000006 9.109197 -0.517756 2.260092 231.954098 -17.947830 324.094716 3.699904 0.000270 -0.000084 235.943448 -15.199570 -28.222080 2.849956 0.000287 0.000581 237.144988 -8.826250 -16.130125 2.774895 -0.000046 -0.000018 0.000001 0.000000 -0.000003 9.533293 0.000326 0.000255 230.745428 -17.127169 -35.223593 3.699913 0.000311 -0.000009 231.687120 -12.603832 -25.685042 2.949980 0.000300 0.000167 230.409847 -4.832417 -10.250421 2.952861 -0.000018 0.000065 0.000000 -0.000002 0.000005 9.104365 -0.043027 -1.864988 183.085884 -22.235157 195.616413 3.150042 0.000292 -0.000087 113.460726 -5.908695 8.997571 2.949925 0.000252 -0.000165 87.827770 13.199112 -12.710997 2.644312 0.000030 0.000059 -0.000000 0.000001 -0.000001 8.077597 -0.486841 -3.806171 182.592567 -17.727512 558.966180 3.599941 0.000393 0.014576 124.453929 2.656555 -4.281592 2.099918 0.000255 0.007516 96.033928 14.970820 -16.296309 2.125509 0.000000 0.007523 0.000001 0.000004 0.000001 -8.207786 -6.751667 -1.599560 -0.077001 -0.000003 0.000080 -0.000002 -44.370110 0.345938 0.153719 -0.000000 -0.000000 0.000000 -44.423679 -3.043532 -0.076700 0.000000 -0.000002 -0.000006 -8.728667 10.710559 -0.000009 -0.000000 -0.000000 -0.000001 -0.000679 9.278123 0.000000 -0.000000 -0.000000 8.207792 -6.751710 -1.599556 -0.074518 -0.000003 0.000081 -0.000002 -44.370014 0.346960 0.148822 0.000002 0.000000 -0.000001 -44.423664 -3.044403 -0.074314 0.000000 -0.000002 -0.000004 -8.728671 10.710558 0.000007 -0.000000 -0.000000 0.000000 -0.000680 9.278137 -0.000000 0.000000 -0.000001 
0.000006 104.270477 1.554256 0.000010 0.000003 -0.000113 -0.000005 10.181587 0.131522 0.000001 -0.000003 0.000084 -0.000000 9.893967 -1.470711 0.000001 0.000000 -0.000000 -0.000000 9.220802 -1.370642 0.000000 -0.000000 -0.000000 0.000001 16.740433 -2.049030 0.000000 -0.000000 -0.000000 0.000000 9.617859 1.685014 0.000000 0.000000 0.000000 0.000002 22.037384 7.501101 0.000000 -0.000000 0.000000 -4.569968 11.014880 -2.160881 0.000008 0.000001 -0.000038 -10.592873 -0.524765 -2.231909 76.481631 28.035555 -22.261492 -27.841515 0.000011 0.000544 -48.157314 110.090218 65.179334 -28.328825 0.000021 0.000029 -0.000321 -0.000045 0.000006 -2.464463 -1.573686 2.682301 -53.524146 -175.813495 -28.271635 -3.215278 -1.872608 1.924658 152.857434 30.453071 -2.417344 -2.654965 -1.527858 1.513067 143.197675 27.784105 -35.426480 -2.018823 -1.152000 1.108072 -0.000002 -0.000007 0.000000 -9.108391 -0.517541 2.260118 97.648496 15.272574 -17.481758 -3.700080 0.000323 0.001502 95.824863 13.082164 -14.444537 -2.850105 0.000368 -0.000257 94.575136 11.608245 -12.565819 -2.772166 0.000003 -0.000022 -0.000001 -0.000000 0.000001 -9.532585 0.000286 0.000215 87.188615 16.528882 -15.883771 -3.700074 0.000326 0.003945 87.415063 12.759704 -12.109715 -2.950064 0.000333 -0.001839 89.268469 12.405823 -12.242563 -2.946630 -0.000011 -0.000154 0.000003 -0.000001 -0.000001 -9.103715 -0.042776 -1.864897 84.309635 19.895487 -18.002432 -3.379354 0.000294 -0.000850 87.684131 12.034069 -11.577674 -2.889783 0.000336 0.000643 94.027847 9.152859 -9.867140 -2.638818 -0.000014 0.000938 0.000003 -0.000000 -0.000002 -8.076781 -0.486428 -3.806077 69.593016 22.499879 -15.626447 -3.600067 0.000237 -0.003582 72.044514 13.466144 -9.534361 -2.100046 0.000277 -0.005544 76.864681 8.213830 -6.340631 -2.115779 -0.000026 -0.003675 0.000001 0.000003 -0.000005 4.570446 11.014691 -2.160851 -0.000018 0.000010 -0.000021 10.592497 -0.524556 -2.232370 45.977224 -65.404826 30.473572 27.841717 -0.000044 -0.000088 236.802276 -70.674652 254.661062 28.328842 -0.000011 0.000030 0.000021 -0.000090 -0.000001 2.466013 -1.576166 2.681880 -28.229375 132.112155 -19.181982 3.217757 -1.872040 1.916527 -159.620073 48.862733 100.501172 2.656044 -1.528787 1.514604 -136.686360 33.466568 68.646283 2.020872 -1.154074 1.115158 0.000003 0.000003 0.000004 9.109159 -0.517723 2.260053 214.610623 -15.902825 311.719452 3.699840 0.000318 -0.000138 214.277569 -15.479983 -47.589206 2.849919 0.000355 0.000525 216.167400 -8.696484 -26.214310 2.774876 -0.000044 -0.000048 0.000001 -0.000001 0.000001 9.533178 0.000354 0.000189 199.978131 -14.399728 -71.292374 3.699810 0.000334 -0.000066 204.781065 -12.080887 -51.433322 2.949897 0.000377 0.000094 204.797417 -6.464617 -28.821780 2.952873 -0.000015 0.000058 -0.000000 -0.000001 0.000000 9.104674 -0.042844 -1.865082 153.583975 -17.510687 66.554593 3.150033 0.000252 -0.000101 101.373709 -4.840494 5.911457 2.949961 0.000203 -0.000148 75.903278 10.175975 -7.943774 2.644331 0.000029 0.000059 0.000003 0.000000 -0.000002 8.077910 -0.486597 -3.806278 151.633970 -11.293315 405.020136 3.599923 0.000346 0.014570 113.332325 5.503381 -7.784968 2.099929 0.000243 0.007501 89.050470 15.508621 -14.977953 2.125509 -0.000026 0.007534 0.000001 0.000002 -0.000002 -8.207786 -6.751667 -1.599560 -0.077001 -0.000003 0.000080 -0.000002 -44.370110 0.345938 0.153719 -0.000000 -0.000000 0.000000 -44.423679 -3.043532 -0.076700 0.000000 -0.000002 -0.000006 -8.728667 10.710559 -0.000009 -0.000000 -0.000000 -0.000001 -0.000679 9.278123 0.000000 -0.000000 -0.000000 8.207792 -6.751710 -1.599556 -0.074518 -0.000003 0.000081 -0.000002 -44.370014 0.346960 0.148822 0.000002 0.000000 -0.000001 -44.423664 -3.044403 -0.074314 0.000000 -0.000002 -0.000004 -8.728671 10.710558 0.000007 -0.000000 -0.000000 0.000000 -0.000680 9.278137 -0.000000 0.000000 -0.000001 
